<svg width="1920" height="1200" xmlns="http://www.w3.org/2000/svg">
 <!-- Created with Method Draw - http://github.com/duopixel/Method-Draw/ -->

 <g>
  <title>background</title>
  <rect x="-1" y="-1" width="1922" height="1202" id="canvas_background" fill="#002145"/>
  <g id="canvasGrid" display="none">
   <rect id="svg_1" width="100%" height="100%" x="0" y="0" stroke-width="0" fill="url(#gridpattern)"/>
  </g>
 </g>
 <g>
  <title>Layer 1</title>
  <path fill="#002145" stroke="#000" stroke-width="1.5" opacity="0.5" d="m318.99312,1207.0065" id="svg_3"/>
  <path fill="#0055b7" stroke="#000" stroke-width="0" stroke-opacity="null" opacity="0.5" d="m-201.01243,671.00078" id="svg_12"/>
  <path fill="#0055b7" stroke="#000" stroke-width="0" stroke-opacity="null" opacity="0.5" d="m204.99191,442.99834" id="svg_13"/>
  <path fill="#0055b7" stroke-width="0" d="m-13.94766,778.84647l131.07966,92.50486l367.01822,-102.782l137.12768,180.89632l189.55886,45.22408l209.72469,-156.22864c2.01485,2.05458 256.10438,-125.3951 256.10438,-125.3951c0,0 326.68655,106.89328 324.6717,104.8387c2.01485,2.05458 207.70637,-273.40118 207.70637,-273.40118c0,0 116.96185,-90.44816 114.947,-92.50273c2.01485,2.05457 2.01485,770.86392 0,768.80934c2.01485,2.05458 -1946.0049,6.16586 -1943.98658,4.11128c-2.01832,2.05458 1.99584,450.17208 6.04802,-446.07493z" id="svg_17" stroke="#000" fill-opacity="0.6"/>
  <path fill="#0055b7" stroke="#000" stroke-width="0" stroke-opacity="null" fill-opacity="0.6" opacity="0.5" d="m1.99828,914.00054c0,0 56.0001,-72.00012 56.0001,-72.00012" id="svg_18"/>
  <path fill="#0055b7" stroke="#000" stroke-width="0" stroke-opacity="null" fill-opacity="0.6" opacity="0.5" d="m55.00623,828.99841" id="svg_20"/>
  <path fill="#0055b7" stroke="#000" stroke-width="0" stroke-opacity="null" fill-opacity="0.6" d="m-2.99997,787.00001c0,0 394,282 394,282c0,0 -106,150 -106,150c0,0 -312,2 -311.00003,0.99997c-0.99997,1.00003 23.00003,-432.99997 23.00003,-432.99997z" id="svg_26"/>
  <path fill="#0055b7" stroke="#000" stroke-width="0" stroke-opacity="null" fill-opacity="0.6" d="m391.00003,1069.00001c0,0 -26,148 -27.00004,146.99997c1.00004,1.00003 359.00004,-4.99997 358,-6c1.00004,1.00003 -330.99996,-140.99997 -330.99996,-140.99997z" id="svg_27"/>
  <path fill="#0055b7" stroke="#000" stroke-width="0" stroke-opacity="null" fill-opacity="0.6" d="m1021.00003,839.00001c0,0 582,-20 582,-20c0,0 330,-214 330,-214c0,0 10,266 8.99994,264.99997c1.00006,1.00003 -202.99994,195.00003 -202.99994,195.00003c0,0 -252,140 -252,140c0,0 -90,-168 -90,-168c0,0 -272,98 -272,98c0,0 -104,-296 -104,-296z" id="svg_31"/>
  <path fill="#0055b7" stroke="#000" stroke-width="0" stroke-opacity="null" fill-opacity="0.6" d="m1811.00003,541.00001c0,0 112,-84 112,-84c0,0 4,132 2.99994,130.99998c1.00006,1.00002 -114.99994,-46.99998 -114.99994,-46.99998z" id="svg_34"/>
  <path fill="#0055b7" stroke="#000" stroke-width="0" stroke-opacity="null" fill-opacity="0.6" opacity="0.5" d="m1811.00003,543.00001" id="svg_35"/>
  <path fill="#0055b7" stroke="#000" stroke-width="0" stroke-opacity="null" fill-opacity="0.6" d="m1711.00003,1225.00001c0,0 26,-160 26,-160c0,0 188,-76 188,-76c0,0 16,224 14.99994,222.99997c1.00006,1.00003 -228.99994,13.00003 -228.99994,13.00003z" id="svg_33"/>
  <path fill="#002145" stroke="#000" stroke-width="0" stroke-opacity="null" fill-opacity="0.8" d="m389.00003,1071.00001c0,0 -24,152 -25.00004,150.99997c1.00004,1.00003 173.00004,-0.99997 172,-2c1.00004,1.00003 -146.99996,-148.99997 -146.99996,-148.99997z" id="svg_41"/>
  <path fill="#002145" stroke="#000" stroke-width="0" stroke-opacity="null" fill-opacity="0.8" d="m1125.00003,1135.00001c0,0 344,38 344,38c0,0 -34,38 -35.00005,36.99997c1.00005,1.00003 -278.99995,3.00003 -280,2c1.00005,1.00003 -28.99995,-76.99997 -28.99995,-76.99997z" id="svg_45"/>
  <path fill="#002145" stroke="#000" stroke-width="0" stroke-opacity="null" fill-opacity="0.8" d="m1737.00003,1063.00001c0,0 116,-46 116,-46c0,0 38,210 36.99994,208.99997c1.00006,1.00003 -88.99994,-0.99997 -90,-2c1.00006,1.00003 -62.99994,-160.99997 -62.99994,-160.99997z" id="svg_46"/>
  <path fill="#002145" stroke="#000" stroke-width="0" stroke-opacity="null" fill-opacity="0.8" d="m1923.00003,611.00001c0,0 -110,-70 -110,-70c0,0 120,-48 120,-48c0,0 -10,118 -10,118z" id="svg_47"/>
  <path fill="#002145" stroke-width="0" stroke-opacity="null" fill-opacity="0.8" d="m1385.00003,997.00002c0,0 218.53125,-176.00001 218.53125,-176.00001c0,0 285.46875,97.10345 285.46875,97.10345c0,0 -64.96875,64.73564 -64.96875,64.73564c0,0 -439.03125,14.16092 -439.03125,14.16092z" id="svg_48" stroke="#000"/>
  <path fill="#002145" stroke="#000" stroke-width="0" stroke-opacity="null" fill-opacity="0.8" d="m1829.00003,981.00001c0,0 96,-46 94.99994,-47.00003c1.00006,1.00003 -2.99994,55.00003 -4,54c1.00006,1.00003 -90.99994,-6.99997 -90.99994,-6.99997z" id="svg_49"/>
  <path fill="#002145" stroke="#000" stroke-width="0" stroke-opacity="null" fill-opacity="0.8" d="m903.00003,1199.00001c0,0 118,-362 118,-362c0,0 -210,158 -210,158c0,0 92,204 92,204z" id="svg_50"/>
  <path fill="#002145" stroke-width="0" stroke-opacity="null" fill-opacity="0.8" d="m279.00004,1213.00001c0,0 -300.0333,-144 -300.0333,-144c0,0 -5.96093,146 -4.96747,144.99997c-0.99346,1.00003 305.00077,-0.99997 305.00077,-0.99997z" id="svg_51" stroke="#000"/>
  <path fill="#002145" stroke-width="0" stroke-opacity="null" fill-opacity="0.6" d="m-2.99997,789.00001c0,0 88,62.90897 88,62.90897c0,0 -136,111.13917 -135.00003,110.09066c-0.99997,1.04851 47.00003,-172.99963 47.00003,-172.99963z" id="svg_53" stroke="#000"/>
  <path fill="#002145" stroke="#000" stroke-width="0" stroke-opacity="null" fill-opacity="0.6" d="m389.00003,1069.00001c0,0 96,-300 96,-300c0,0 140,184 140,184c0,0 -236,116 -236,116z" id="svg_54"/>
  <path fill="#002145" stroke-width="0" stroke-opacity="null" fill-opacity="0.6" d="m625.00004,953.00001c0,0 186.61898,42 186.61898,42c0,0 99.3949,220 98.38062,218.99997c1.01427,1.00003 -29.41273,-0.99997 -30.42701,-2c1.01428,1.00003 -254.57259,-258.99997 -254.57259,-258.99997z" id="svg_56" stroke="#000"/>
  <path fill="#002145" stroke="#000" stroke-width="0" stroke-opacity="null" fill-opacity="0.6" d="m1125.00003,1135.00001c0,0 -114,80 -115.00005,78.99997c1.00005,1.00003 -64.99995,1.00003 -66,0c1.00005,1.00003 181.00005,-78.99997 181.00005,-78.99997z" id="svg_57"/>
  <path fill="#002145" stroke-width="0" stroke-opacity="null" fill-opacity="0.6" d="m1737.58968,1065.00001c0,0 57.43565,146 56.40995,144.99997c1.0257,1.00003 -78.97396,-2.99997 -79.99966,-4c1.0257,1.00003 23.58971,-140.99997 23.58971,-140.99997z" id="svg_59" stroke="#000"/>
  <path fill="#002145" stroke-width="0" stroke-opacity="null" fill-opacity="0.6" d="m1823.00003,983.00002c0,0 102.01567,-97.9579 100.95294,-99.00004c1.06273,1.04214 1.06273,53.1474 0,52.10527c1.06273,1.04213 -100.95294,46.89477 -100.95294,46.89477z" id="svg_61" stroke="#000"/>
  <path fill="#002145" stroke-width="0" stroke-opacity="null" fill-opacity="0.6" d="m1381.00003,997.00001c0,0 443.99999,-16 443.99999,-16c0,0 -89.19643,84 -89.19643,84c0,0 -93.16071,50 -93.16071,50c0,0 -231.91071,-56 -231.91071,-56c0,0 -29.73214,-62 -29.73214,-62z" id="svg_64" stroke="#000"/>
  <path fill="#002145" stroke="#000" stroke-width="0" stroke-opacity="null" fill-opacity="0.6" d="m1021.00003,839.00001c0,0 364,158 364,158c0,0 220,-176 220,-176c0,0 -584,18 -584,18z" id="svg_65"/>
  <path fill="#002145" stroke-width="0" stroke-opacity="null" fill-opacity="0.4" d="m1.00003,919.62965c0,0 86,-68.62963 86,-68.62963c0,0 306,218 306,218c0,0 -396,-80.74074 -396,-80.74074c0,0 4,-68.62963 4,-68.62963z" id="svg_66" stroke="#000"/>
 </g>
</svg>