<?xml version="1.0" encoding="UTF-8"?>
<svg width="709px" height="115px" viewBox="0 0 709 115" version="1.1" xmlns="http://www.w3.org/2000/svg" xmlns:xlink="http://www.w3.org/1999/xlink">
    <!-- Generator: Sketch 45.2 (43514) - http://www.bohemiancoding.com/sketch -->
    <title>nereus-footer</title>
    <desc>Created with Sketch.</desc>
    <defs></defs>
    <g id="Page-1" stroke="none" stroke-width="1" fill="none" fill-rule="evenodd">
        <g id="Nereus_Program_Logo_2017" transform="translate(0.000000, -129.000000)" fill="#ffffff">
            <g id="nereus-blue" transform="translate(0.000000, 129.000000)">
                <path d="M2.405,109.042 C2.526,109.163 2.672,109.223 2.845,109.223 C3.017,109.223 3.168,109.163 3.297,109.042 C3.427,108.922 3.491,108.775 3.491,108.603 L3.491,101.492 L7.965,101.44 C9.378,101.44 10.589,100.936 11.598,99.927 C12.606,98.919 13.11,97.704 13.11,96.281 C13.11,94.859 12.606,93.644 11.598,92.635 C10.589,91.627 9.378,91.123 7.965,91.123 L2.845,91.123 C2.672,91.123 2.526,91.183 2.405,91.304 C2.284,91.425 2.224,91.571 2.224,91.743 L2.224,108.603 C2.224,108.775 2.284,108.922 2.405,109.042 Z M3.491,92.39 L7.965,92.39 C9.033,92.39 9.951,92.774 10.719,93.541 C11.485,94.308 11.869,95.226 11.869,96.294 C11.869,97.363 11.485,98.281 10.719,99.048 C9.951,99.815 9.033,100.208 7.965,100.225 L3.491,100.225 L3.491,92.39 Z M17.196,109.042 C17.316,109.163 17.463,109.223 17.635,109.223 C17.807,109.223 17.954,109.163 18.075,109.042 C18.195,108.922 18.256,108.775 18.256,108.603 L18.256,103.043 C18.256,102.975 18.273,102.906 18.308,102.836 C18.704,101.699 19.213,100.716 19.833,99.889 C20.902,98.51 22.126,97.82 23.505,97.82 C23.677,97.82 23.824,97.76 23.945,97.639 C24.065,97.519 24.126,97.372 24.126,97.199 C24.126,97.027 24.065,96.881 23.945,96.76 C23.824,96.639 23.677,96.579 23.505,96.579 C21.453,96.579 19.764,97.613 18.437,99.682 C18.385,99.751 18.325,99.854 18.256,99.992 L18.256,97.199 C18.256,97.027 18.195,96.881 18.075,96.76 C17.954,96.639 17.807,96.579 17.635,96.579 C17.463,96.579 17.316,96.639 17.196,96.76 C17.075,96.881 17.015,97.027 17.015,97.199 L17.015,108.603 C17.015,108.775 17.075,108.922 17.196,109.042 Z M37.261,98.247 C36.106,97.118 34.697,96.553 33.034,96.553 C31.37,96.553 29.939,97.174 28.741,98.415 C27.543,99.656 26.944,101.152 26.944,102.901 C26.944,104.651 27.543,106.142 28.741,107.374 C29.939,108.607 31.392,109.223 33.098,109.223 C34.15,109.223 35.128,108.965 36.033,108.448 C36.938,107.93 37.666,107.232 38.218,106.353 C38.425,106.008 38.356,105.716 38.011,105.474 C37.666,105.267 37.391,105.336 37.184,105.681 C36.753,106.388 36.175,106.948 35.451,107.362 C34.727,107.775 33.943,107.982 33.098,107.982 C31.788,107.982 30.659,107.517 29.711,106.586 C28.763,105.655 28.254,104.5 28.185,103.121 L38.58,103.121 C38.752,103.121 38.899,103.069 39.02,102.966 C39.14,102.862 39.201,102.725 39.201,102.552 L39.201,102.449 C39.062,100.777 38.416,99.376 37.261,98.247 Z M37.856,101.906 L28.263,101.906 C28.504,100.699 29.073,99.712 29.969,98.945 C30.866,98.178 31.904,97.794 33.085,97.794 C34.266,97.794 35.305,98.182 36.201,98.958 C37.097,99.733 37.649,100.716 37.856,101.906 Z M53.927,109.042 C54.056,109.163 54.207,109.223 54.379,109.223 C54.551,109.223 54.698,109.163 54.819,109.042 C54.939,108.922 55,108.775 55,108.603 L55,91.743 C55,91.571 54.939,91.425 54.819,91.304 C54.698,91.183 54.551,91.123 54.379,91.123 C54.207,91.123 54.056,91.183 53.927,91.304 C53.797,91.425 53.733,91.571 53.733,91.743 L53.733,99.035 C53.164,98.277 52.457,97.674 51.612,97.225 C50.767,96.777 49.854,96.553 48.871,96.553 C47.165,96.553 45.717,97.174 44.527,98.415 C43.338,99.656 42.743,101.152 42.743,102.901 C42.743,104.651 43.338,106.142 44.527,107.374 C45.717,108.607 47.165,109.223 48.871,109.223 C49.854,109.223 50.767,109.004 51.612,108.564 C52.457,108.124 53.164,107.526 53.733,106.767 L53.733,108.603 C53.733,108.775 53.797,108.922 53.927,109.042 Z M45.445,99.307 C46.402,98.316 47.54,97.82 48.858,97.82 C50.177,97.82 51.306,98.294 52.246,99.242 C53.185,100.19 53.681,101.346 53.733,102.707 L53.733,103.121 C53.681,104.465 53.185,105.608 52.246,106.547 C51.306,107.487 50.177,107.956 48.858,107.956 C47.54,107.956 46.402,107.465 45.445,106.482 C44.488,105.5 44.01,104.306 44.01,102.901 C44.01,101.496 44.488,100.298 45.445,99.307 Z M60.869,109.042 C60.989,109.163 61.136,109.223 61.309,109.223 C61.481,109.223 61.632,109.163 61.761,109.042 C61.89,108.922 61.955,108.775 61.955,108.603 L61.955,97.174 C61.955,97.001 61.894,96.855 61.774,96.734 C61.653,96.614 61.503,96.553 61.322,96.553 C61.141,96.553 60.989,96.614 60.869,96.734 C60.748,96.855 60.688,97.001 60.688,97.174 L60.688,108.603 C60.688,108.775 60.748,108.922 60.869,109.042 Z M60.869,94.109 C60.989,94.239 61.136,94.303 61.309,94.303 C61.481,94.303 61.632,94.239 61.761,94.109 C61.89,93.98 61.955,93.821 61.955,93.631 L61.955,93.036 C61.955,92.864 61.89,92.718 61.761,92.597 C61.632,92.476 61.481,92.416 61.309,92.416 C61.136,92.416 60.989,92.476 60.869,92.597 C60.748,92.718 60.688,92.864 60.688,93.036 L60.688,93.631 C60.688,93.821 60.748,93.98 60.869,94.109 Z M73.539,109.223 C75.039,109.223 76.366,108.775 77.521,107.879 C77.883,107.603 77.931,107.31 77.663,107 C77.396,106.689 77.108,106.646 76.797,106.87 C75.832,107.612 74.681,107.982 73.345,107.982 C72.009,107.982 70.828,107.487 69.803,106.495 C68.777,105.504 68.264,104.302 68.264,102.888 C68.264,101.475 68.777,100.268 69.803,99.268 C70.828,98.268 72.014,97.768 73.358,97.768 C74.703,97.768 75.849,98.148 76.797,98.906 C77.108,99.13 77.392,99.096 77.651,98.803 C77.771,98.665 77.823,98.51 77.806,98.337 C77.788,98.165 77.711,98.036 77.573,97.949 C76.4,97.018 74.983,96.553 73.319,96.553 C71.656,96.553 70.191,97.165 68.924,98.389 C67.656,99.613 67.023,101.108 67.023,102.875 C67.023,104.642 67.656,106.142 68.924,107.374 C70.191,108.607 71.729,109.223 73.539,109.223 Z M85.382,96.553 L85.382,91.847 C85.382,91.692 85.313,91.549 85.175,91.42 C85.037,91.291 84.886,91.226 84.723,91.226 C84.559,91.226 84.412,91.291 84.283,91.42 C84.154,91.549 84.089,91.692 84.089,91.847 L84.089,96.553 L82.512,96.553 C82.167,96.553 81.969,96.656 81.917,96.863 C81.9,96.932 81.891,97.053 81.891,97.225 C81.891,97.398 81.926,97.536 81.995,97.639 C82.063,97.742 82.236,97.794 82.512,97.794 L84.089,97.794 L84.089,107.025 C84.089,107.663 84.3,108.189 84.723,108.603 C85.145,109.016 85.675,109.223 86.313,109.223 C86.468,109.223 86.614,109.159 86.753,109.029 C86.89,108.9 86.959,108.758 86.959,108.603 C86.959,108.448 86.89,108.301 86.753,108.163 C86.614,108.025 86.459,107.956 86.287,107.956 C86.115,107.956 85.921,107.87 85.705,107.698 C85.49,107.526 85.382,107.301 85.382,107.025 L85.382,97.794 L87.011,97.794 C87.166,97.794 87.308,97.729 87.438,97.6 C87.567,97.471 87.632,97.329 87.632,97.174 C87.632,97.018 87.567,96.876 87.438,96.747 C87.308,96.618 87.166,96.553 87.011,96.553 L85.382,96.553 Z M93.76,109.042 C93.88,109.163 94.027,109.223 94.199,109.223 C94.372,109.223 94.523,109.163 94.652,109.042 C94.781,108.922 94.846,108.775 94.846,108.603 L94.846,97.174 C94.846,97.001 94.785,96.855 94.665,96.734 C94.544,96.614 94.393,96.553 94.212,96.553 C94.031,96.553 93.88,96.614 93.76,96.734 C93.639,96.855 93.579,97.001 93.579,97.174 L93.579,108.603 C93.579,108.775 93.639,108.922 93.76,109.042 Z M93.76,94.109 C93.88,94.239 94.027,94.303 94.199,94.303 C94.372,94.303 94.523,94.239 94.652,94.109 C94.781,93.98 94.846,93.821 94.846,93.631 L94.846,93.036 C94.846,92.864 94.781,92.718 94.652,92.597 C94.523,92.476 94.372,92.416 94.199,92.416 C94.027,92.416 93.88,92.476 93.76,92.597 C93.639,92.718 93.579,92.864 93.579,93.036 L93.579,93.631 C93.579,93.821 93.639,93.98 93.76,94.109 Z M103.068,101.725 C103.103,100.638 103.499,99.717 104.258,98.958 C105.016,98.199 105.934,97.82 107.012,97.82 C108.089,97.82 109.007,98.204 109.766,98.971 C110.524,99.738 110.903,100.656 110.903,101.725 L110.903,108.603 C110.903,108.775 110.964,108.922 111.084,109.042 C111.205,109.163 111.351,109.223 111.524,109.223 C111.696,109.223 111.843,109.163 111.964,109.042 C112.084,108.922 112.145,108.775 112.145,108.603 L112.145,101.725 C112.145,100.311 111.64,99.1 110.632,98.091 C109.623,97.083 108.365,96.579 106.857,96.579 C105.348,96.579 104.085,97.191 103.068,98.415 L103.068,97.199 C103.068,97.027 103.012,96.881 102.9,96.76 C102.788,96.639 102.646,96.579 102.474,96.579 C102.301,96.579 102.154,96.639 102.034,96.76 C101.913,96.881 101.853,97.027 101.853,97.199 L101.853,108.758 L101.879,108.81 C101.879,108.844 101.887,108.87 101.905,108.887 C101.991,109.06 102.129,109.172 102.319,109.223 L102.474,109.223 C102.784,109.223 102.982,109.051 103.068,108.706 L103.068,101.725 Z M128.073,96.734 C127.952,96.614 127.81,96.553 127.646,96.553 C127.482,96.553 127.336,96.614 127.206,96.734 C127.077,96.855 127.013,97.001 127.013,97.174 L127.013,99.035 C126.478,98.277 125.793,97.674 124.957,97.225 C124.12,96.777 123.228,96.553 122.281,96.553 C120.643,96.553 119.242,97.169 118.079,98.402 C116.915,99.634 116.333,101.117 116.333,102.849 C116.333,104.582 116.911,106.065 118.066,107.297 C119.22,108.53 120.626,109.146 122.281,109.146 C123.246,109.146 124.142,108.926 124.97,108.486 C125.797,108.047 126.478,107.439 127.013,106.663 L127.013,108.215 C127.013,109.525 126.551,110.637 125.629,111.551 C124.707,112.464 123.59,112.921 122.281,112.921 C121.557,112.921 120.867,112.766 120.212,112.456 C119.85,112.249 119.574,112.343 119.384,112.74 C119.212,113.05 119.298,113.326 119.643,113.567 C120.557,113.964 121.436,114.162 122.281,114.162 C123.935,114.162 125.345,113.58 126.508,112.417 C127.672,111.253 128.254,109.852 128.254,108.215 L128.254,97.174 C128.254,97.001 128.193,96.855 128.073,96.734 Z M118.958,99.268 C119.88,98.285 120.992,97.794 122.293,97.794 C123.595,97.794 124.707,98.281 125.629,99.255 C126.551,100.229 127.013,101.423 127.013,102.836 C127.013,104.25 126.551,105.453 125.629,106.444 C124.707,107.435 123.595,107.93 122.293,107.93 C120.992,107.93 119.88,107.435 118.958,106.444 C118.035,105.453 117.574,104.255 117.574,102.849 C117.574,101.445 118.035,100.251 118.958,99.268 Z M142.475,109.042 C142.595,109.163 142.742,109.223 142.914,109.223 C143.087,109.223 143.238,109.163 143.367,109.042 C143.496,108.922 143.561,108.775 143.561,108.603 L143.561,100.82 L151.163,100.82 C151.335,100.82 151.486,100.759 151.616,100.638 C151.745,100.518 151.81,100.367 151.81,100.186 C151.81,100.005 151.749,99.854 151.629,99.733 C151.508,99.613 151.353,99.552 151.163,99.552 L143.561,99.552 L143.561,92.39 L152.249,92.39 C152.421,92.39 152.568,92.325 152.689,92.196 C152.809,92.067 152.87,91.916 152.87,91.743 C152.87,91.571 152.809,91.425 152.689,91.304 C152.568,91.183 152.421,91.123 152.249,91.123 L142.889,91.123 C142.492,91.158 142.294,91.364 142.294,91.743 L142.294,108.603 C142.294,108.775 142.354,108.922 142.475,109.042 Z M158.377,107.711 C159.377,108.719 160.592,109.223 162.023,109.223 C163.454,109.223 164.674,108.719 165.682,107.711 C166.691,106.702 167.195,105.483 167.195,104.052 L167.195,97.148 C167.195,96.976 167.134,96.829 167.014,96.708 C166.893,96.588 166.746,96.527 166.574,96.527 C166.402,96.527 166.251,96.588 166.122,96.708 C165.993,96.829 165.928,96.976 165.928,97.148 L165.928,104.052 C165.928,105.138 165.544,106.06 164.777,106.819 C164.01,107.577 163.083,107.965 161.997,107.982 C160.928,107.965 160.015,107.577 159.257,106.819 C158.498,106.06 158.119,105.138 158.119,104.052 L158.119,97.148 C158.119,96.976 158.058,96.829 157.938,96.708 C157.817,96.588 157.67,96.527 157.498,96.527 C157.326,96.527 157.179,96.588 157.059,96.708 C156.938,96.829 156.878,96.976 156.878,97.148 L156.878,104.052 C156.878,105.483 157.377,106.702 158.377,107.711 Z M175.159,96.553 L175.159,91.847 C175.159,91.692 175.09,91.549 174.952,91.42 C174.814,91.291 174.663,91.226 174.499,91.226 C174.335,91.226 174.189,91.291 174.06,91.42 C173.931,91.549 173.866,91.692 173.866,91.847 L173.866,96.553 L172.289,96.553 C171.944,96.553 171.746,96.656 171.694,96.863 C171.677,96.932 171.668,97.053 171.668,97.225 C171.668,97.398 171.702,97.536 171.771,97.639 C171.84,97.742 172.013,97.794 172.289,97.794 L173.866,97.794 L173.866,107.025 C173.866,107.663 174.077,108.189 174.499,108.603 C174.922,109.016 175.452,109.223 176.09,109.223 C176.245,109.223 176.391,109.159 176.529,109.029 C176.667,108.9 176.736,108.758 176.736,108.603 C176.736,108.448 176.667,108.301 176.529,108.163 C176.391,108.025 176.236,107.956 176.064,107.956 C175.891,107.956 175.697,107.87 175.482,107.698 C175.266,107.526 175.159,107.301 175.159,107.025 L175.159,97.794 L176.788,97.794 C176.943,97.794 177.085,97.729 177.215,97.6 C177.344,97.471 177.409,97.329 177.409,97.174 C177.409,97.018 177.344,96.876 177.215,96.747 C177.085,96.618 176.943,96.553 176.788,96.553 L175.159,96.553 Z M184.571,107.711 C185.571,108.719 186.786,109.223 188.217,109.223 C189.648,109.223 190.867,108.719 191.876,107.711 C192.884,106.702 193.388,105.483 193.388,104.052 L193.388,97.148 C193.388,96.976 193.328,96.829 193.207,96.708 C193.087,96.588 192.94,96.527 192.768,96.527 C192.595,96.527 192.445,96.588 192.315,96.708 C192.186,96.829 192.121,96.976 192.121,97.148 L192.121,104.052 C192.121,105.138 191.738,106.06 190.971,106.819 C190.204,107.577 189.277,107.965 188.191,107.982 C187.122,107.965 186.208,107.577 185.45,106.819 C184.691,106.06 184.312,105.138 184.312,104.052 L184.312,97.148 C184.312,96.976 184.252,96.829 184.131,96.708 C184.011,96.588 183.864,96.527 183.692,96.527 C183.519,96.527 183.373,96.588 183.252,96.708 C183.131,96.829 183.071,96.976 183.071,97.148 L183.071,104.052 C183.071,105.483 183.571,106.702 184.571,107.711 Z M199.361,109.042 C199.482,109.163 199.628,109.223 199.801,109.223 C199.973,109.223 200.12,109.163 200.241,109.042 C200.361,108.922 200.422,108.775 200.422,108.603 L200.422,103.043 C200.422,102.975 200.439,102.906 200.473,102.836 C200.87,101.699 201.378,100.716 201.999,99.889 C203.068,98.51 204.291,97.82 205.671,97.82 C205.843,97.82 205.99,97.76 206.11,97.639 C206.231,97.519 206.291,97.372 206.291,97.199 C206.291,97.027 206.231,96.881 206.11,96.76 C205.99,96.639 205.843,96.579 205.671,96.579 C203.619,96.579 201.93,97.613 200.603,99.682 C200.551,99.751 200.49,99.854 200.422,99.992 L200.422,97.199 C200.422,97.027 200.361,96.881 200.241,96.76 C200.12,96.639 199.973,96.579 199.801,96.579 C199.628,96.579 199.482,96.639 199.361,96.76 C199.241,96.881 199.18,97.027 199.18,97.199 L199.18,108.603 C199.18,108.775 199.241,108.922 199.361,109.042 Z M219.944,98.247 C218.789,97.118 217.38,96.553 215.716,96.553 C214.053,96.553 212.622,97.174 211.424,98.415 C210.226,99.656 209.627,101.152 209.627,102.901 C209.627,104.651 210.226,106.142 211.424,107.374 C212.622,108.607 214.074,109.223 215.781,109.223 C216.832,109.223 217.811,108.965 218.716,108.448 C219.621,107.93 220.349,107.232 220.901,106.353 C221.108,106.008 221.039,105.716 220.694,105.474 C220.349,105.267 220.073,105.336 219.867,105.681 C219.435,106.388 218.858,106.948 218.134,107.362 C217.41,107.775 216.625,107.982 215.781,107.982 C214.471,107.982 213.341,107.517 212.394,106.586 C211.445,105.655 210.937,104.5 210.868,103.121 L221.263,103.121 C221.435,103.121 221.582,103.069 221.702,102.966 C221.823,102.862 221.883,102.725 221.883,102.552 L221.883,102.449 C221.745,100.777 221.099,99.376 219.944,98.247 Z M220.539,101.906 L210.946,101.906 C211.187,100.699 211.756,99.712 212.652,98.945 C213.548,98.178 214.587,97.794 215.768,97.794 C216.949,97.794 217.987,98.182 218.884,98.958 C219.78,99.733 220.332,100.716 220.539,101.906 Z M236.079,106.547 C237.768,108.331 239.824,109.223 242.246,109.223 C244.668,109.223 246.715,108.331 248.387,106.547 C250.059,104.763 250.904,102.595 250.921,100.044 C250.904,97.493 250.059,95.325 248.387,93.541 C246.715,91.756 244.668,90.864 242.246,90.864 C239.824,90.864 237.768,91.756 236.079,93.541 C234.389,95.325 233.536,97.493 233.519,100.044 C233.536,102.595 234.389,104.763 236.079,106.547 Z M247.443,94.433 C248.883,95.95 249.611,97.82 249.628,100.044 C249.611,102.233 248.879,104.099 247.431,105.642 C245.983,107.185 244.241,107.956 242.207,107.956 C240.173,107.956 238.428,107.189 236.971,105.655 C235.514,104.121 234.786,102.246 234.786,100.031 C234.786,97.816 235.514,95.95 236.971,94.433 C238.428,92.916 240.177,92.157 242.22,92.157 C244.263,92.157 246.004,92.916 247.443,94.433 Z M261.109,109.223 C262.609,109.223 263.936,108.775 265.091,107.879 C265.453,107.603 265.501,107.31 265.233,107 C264.966,106.689 264.677,106.646 264.367,106.87 C263.402,107.612 262.251,107.982 260.915,107.982 C259.579,107.982 258.398,107.487 257.373,106.495 C256.347,105.504 255.834,104.302 255.834,102.888 C255.834,101.475 256.347,100.268 257.373,99.268 C258.398,98.268 259.583,97.768 260.928,97.768 C262.273,97.768 263.419,98.148 264.367,98.906 C264.677,99.13 264.962,99.096 265.221,98.803 C265.341,98.665 265.393,98.51 265.376,98.337 C265.358,98.165 265.281,98.036 265.143,97.949 C263.97,97.018 262.553,96.553 260.889,96.553 C259.226,96.553 257.761,97.165 256.493,98.389 C255.226,99.613 254.593,101.108 254.593,102.875 C254.593,104.642 255.226,106.142 256.493,107.374 C257.761,108.607 259.299,109.223 261.109,109.223 Z M279.675,98.247 C278.52,97.118 277.111,96.553 275.447,96.553 C273.783,96.553 272.353,97.174 271.155,98.415 C269.957,99.656 269.358,101.152 269.358,102.901 C269.358,104.651 269.957,106.142 271.155,107.374 C272.353,108.607 273.805,109.223 275.512,109.223 C276.563,109.223 277.542,108.965 278.447,108.448 C279.352,107.93 280.08,107.232 280.632,106.353 C280.839,106.008 280.77,105.716 280.425,105.474 C280.08,105.267 279.804,105.336 279.597,105.681 C279.166,106.388 278.589,106.948 277.865,107.362 C277.141,107.775 276.356,107.982 275.512,107.982 C274.202,107.982 273.072,107.517 272.125,106.586 C271.176,105.655 270.668,104.5 270.599,103.121 L280.994,103.121 C281.166,103.121 281.313,103.069 281.433,102.966 C281.554,102.862 281.614,102.725 281.614,102.552 L281.614,102.449 C281.476,100.777 280.83,99.376 279.675,98.247 Z M280.27,101.906 L270.677,101.906 C270.918,100.699 271.487,99.712 272.383,98.945 C273.279,98.178 274.318,97.794 275.499,97.794 C276.68,97.794 277.718,98.182 278.615,98.958 C279.511,99.733 280.063,100.716 280.27,101.906 Z M295.396,97.174 L295.396,99.035 C294.845,98.277 294.151,97.674 293.315,97.225 C292.479,96.777 291.586,96.553 290.639,96.553 C288.984,96.553 287.57,97.174 286.398,98.415 C285.225,99.656 284.64,101.147 284.64,102.888 C284.64,104.629 285.225,106.12 286.398,107.362 C287.57,108.603 288.984,109.223 290.639,109.223 C291.586,109.223 292.479,108.999 293.315,108.551 C294.151,108.103 294.845,107.491 295.396,106.715 L295.396,108.603 C295.396,108.775 295.457,108.922 295.577,109.042 C295.698,109.163 295.844,109.223 296.017,109.223 C296.189,109.223 296.336,109.163 296.457,109.042 C296.577,108.922 296.638,108.775 296.638,108.603 L296.638,97.174 C296.638,97.001 296.577,96.855 296.457,96.734 C296.336,96.614 296.189,96.553 296.017,96.553 C295.844,96.553 295.698,96.614 295.577,96.734 C295.457,96.855 295.396,97.001 295.396,97.174 Z M287.29,99.268 C288.229,98.268 289.35,97.768 290.651,97.768 C291.953,97.768 293.069,98.268 294,99.268 C294.931,100.268 295.396,101.475 295.396,102.888 C295.396,104.302 294.931,105.504 294,106.495 C293.069,107.487 291.953,107.982 290.651,107.982 C289.35,107.982 288.229,107.487 287.29,106.495 C286.35,105.504 285.881,104.302 285.881,102.888 C285.881,101.475 286.35,100.268 287.29,99.268 Z M303.231,101.725 C303.265,100.638 303.662,99.717 304.421,98.958 C305.179,98.199 306.097,97.82 307.174,97.82 C308.251,97.82 309.169,98.204 309.928,98.971 C310.687,99.738 311.066,100.656 311.066,101.725 L311.066,108.603 C311.066,108.775 311.126,108.922 311.247,109.042 C311.367,109.163 311.514,109.223 311.687,109.223 C311.859,109.223 312.005,109.163 312.126,109.042 C312.247,108.922 312.307,108.775 312.307,108.603 L312.307,101.725 C312.307,100.311 311.803,99.1 310.794,98.091 C309.786,97.083 308.527,96.579 307.019,96.579 C305.511,96.579 304.248,97.191 303.231,98.415 L303.231,97.199 C303.231,97.027 303.175,96.881 303.063,96.76 C302.951,96.639 302.808,96.579 302.636,96.579 C302.464,96.579 302.317,96.639 302.197,96.76 C302.076,96.881 302.016,97.027 302.016,97.199 L302.016,108.758 L302.042,108.81 C302.042,108.844 302.05,108.87 302.067,108.887 C302.154,109.06 302.291,109.172 302.481,109.223 L302.636,109.223 C302.947,109.223 303.145,109.051 303.231,108.706 L303.231,101.725 Z M321.745,109.223 C322.934,109.223 323.999,108.874 324.938,108.176 C325.878,107.478 326.348,106.608 326.348,105.564 C326.348,104.522 325.873,103.69 324.926,103.069 C323.995,102.552 322.969,102.207 321.848,102.035 L321.797,102.035 C320.676,101.863 319.814,101.569 319.211,101.156 C318.728,100.777 318.487,100.337 318.487,99.837 C318.487,99.337 318.771,98.859 319.34,98.402 C319.909,97.945 320.693,97.717 321.693,97.717 C322.072,97.717 322.469,97.79 322.883,97.936 C323.297,98.083 323.611,98.221 323.827,98.35 C324.042,98.479 324.365,98.691 324.796,98.984 C324.934,99.07 325.089,99.096 325.262,99.061 C325.434,99.027 325.563,98.941 325.65,98.803 C325.736,98.665 325.761,98.51 325.727,98.337 C325.692,98.165 325.606,98.027 325.469,97.923 C325.003,97.63 324.637,97.411 324.37,97.264 C324.102,97.118 323.714,96.963 323.206,96.799 C322.697,96.635 322.193,96.553 321.693,96.553 C320.452,96.553 319.418,96.837 318.59,97.406 C317.676,98.079 317.22,98.906 317.22,99.889 C317.22,100.871 317.676,101.63 318.59,102.164 C319.159,102.578 320.116,102.906 321.461,103.147 L321.512,103.173 C322.77,103.379 323.68,103.707 324.24,104.155 C324.8,104.604 325.085,105.116 325.094,105.694 C325.102,106.271 324.787,106.776 324.15,107.206 C323.512,107.724 322.641,107.982 321.538,107.982 C320.435,107.982 319.211,107.491 317.866,106.508 C317.728,106.388 317.573,106.336 317.401,106.353 C317.228,106.37 317.091,106.448 316.987,106.586 C316.746,106.879 316.771,107.155 317.065,107.413 C318.547,108.603 320.107,109.206 321.745,109.223 L321.745,109.223 Z" id="Fill-1"></path>
                <path d="M7.085,18.54 C7.206,18.661 7.353,18.721 7.525,18.721 C7.697,18.721 7.844,18.661 7.965,18.54 C8.085,18.419 8.146,18.273 8.146,18.1 L8.146,1.887 L13.602,1.887 C13.774,1.887 13.921,1.823 14.041,1.693 C14.162,1.564 14.222,1.413 14.222,1.241 C14.222,1.069 14.162,0.922 14.041,0.801 C13.921,0.681 13.774,0.62 13.602,0.62 L1.449,0.62 C1.276,0.62 1.129,0.681 1.009,0.801 C0.888,0.922 0.828,1.069 0.828,1.241 C0.828,1.413 0.888,1.564 1.009,1.693 C1.129,1.823 1.276,1.887 1.449,1.887 L6.905,1.887 L6.905,18.1 C6.905,18.273 6.965,18.419 7.085,18.54 Z M19.497,18.695 C19.669,18.643 19.79,18.553 19.859,18.423 C19.928,18.294 19.963,18.213 19.963,18.178 L19.963,11.041 C19.963,9.955 20.35,9.063 21.126,8.365 C21.902,7.667 22.854,7.318 23.983,7.318 C25.112,7.318 26.065,7.667 26.841,8.365 C27.617,9.063 28.004,9.955 28.004,11.041 L28.004,18.1 C28.004,18.273 28.065,18.419 28.185,18.54 C28.306,18.661 28.452,18.721 28.625,18.721 C28.797,18.721 28.948,18.661 29.077,18.54 C29.207,18.419 29.271,18.273 29.271,18.1 L29.271,11.041 C29.271,9.593 28.758,8.4 27.733,7.46 C26.707,6.52 25.419,6.05 23.867,6.05 C22.316,6.05 21.014,6.671 19.963,7.912 L19.963,1.241 C19.963,1.069 19.898,0.922 19.769,0.801 C19.639,0.681 19.488,0.62 19.316,0.62 C19.144,0.62 18.997,0.681 18.877,0.801 C18.756,0.922 18.696,1.069 18.696,1.241 L18.696,18.1 C18.696,18.514 18.902,18.721 19.316,18.721 L19.445,18.721 C19.462,18.721 19.48,18.712 19.497,18.695 Z M43.958,7.744 C42.803,6.615 41.394,6.05 39.731,6.05 C38.067,6.05 36.636,6.671 35.438,7.912 C34.24,9.153 33.641,10.649 33.641,12.399 C33.641,14.148 34.24,15.64 35.438,16.872 C36.636,18.105 38.089,18.721 39.795,18.721 C40.847,18.721 41.825,18.462 42.73,17.945 C43.635,17.428 44.363,16.73 44.915,15.851 C45.122,15.506 45.053,15.213 44.708,14.971 C44.363,14.765 44.088,14.834 43.881,15.178 C43.45,15.885 42.872,16.445 42.148,16.859 C41.424,17.273 40.64,17.48 39.795,17.48 C38.485,17.48 37.356,17.014 36.408,16.083 C35.46,15.152 34.951,13.998 34.882,12.618 L45.277,12.618 C45.449,12.618 45.596,12.567 45.717,12.463 C45.837,12.36 45.898,12.222 45.898,12.05 L45.898,11.946 C45.76,10.274 45.113,8.873 43.958,7.744 Z M44.553,11.403 L34.96,11.403 C35.201,10.197 35.77,9.21 36.667,8.442 C37.563,7.675 38.601,7.292 39.782,7.292 C40.963,7.292 42.002,7.68 42.898,8.455 C43.794,9.231 44.346,10.214 44.553,11.403 Z M70.617,18.488 C70.738,18.643 70.893,18.721 71.083,18.721 C71.272,18.721 71.432,18.661 71.561,18.54 C71.691,18.419 71.755,18.273 71.755,18.1 L71.755,1.422 C71.755,1.25 71.691,1.103 71.561,0.982 C71.432,0.862 71.281,0.801 71.109,0.801 C70.936,0.801 70.79,0.862 70.669,0.982 C70.548,1.103 70.488,1.25 70.488,1.422 L70.488,16.161 L59.524,0.956 C59.438,0.819 59.305,0.737 59.124,0.711 C58.943,0.685 58.757,0.741 58.568,0.879 C58.378,1.017 58.326,1.224 58.412,1.5 L58.412,18.1 C58.412,18.273 58.473,18.419 58.593,18.54 C58.714,18.661 58.861,18.721 59.033,18.721 C59.205,18.721 59.352,18.661 59.473,18.54 C59.593,18.419 59.654,18.273 59.654,18.1 L59.654,3.284 L70.514,18.385 L70.617,18.488 Z M78.194,18.54 C78.314,18.661 78.461,18.721 78.633,18.721 C78.805,18.721 78.956,18.661 79.086,18.54 C79.215,18.419 79.28,18.273 79.28,18.1 L79.28,6.671 C79.28,6.499 79.219,6.352 79.099,6.231 C78.978,6.111 78.827,6.05 78.646,6.05 C78.465,6.05 78.314,6.111 78.194,6.231 C78.073,6.352 78.013,6.499 78.013,6.671 L78.013,18.1 C78.013,18.273 78.073,18.419 78.194,18.54 Z M78.194,3.607 C78.314,3.736 78.461,3.801 78.633,3.801 C78.805,3.801 78.956,3.736 79.086,3.607 C79.215,3.478 79.28,3.318 79.28,3.129 L79.28,2.534 C79.28,2.362 79.215,2.215 79.086,2.094 C78.956,1.974 78.805,1.913 78.633,1.913 C78.461,1.913 78.314,1.974 78.194,2.094 C78.073,2.215 78.013,2.362 78.013,2.534 L78.013,3.129 C78.013,3.318 78.073,3.478 78.194,3.607 Z M85.434,23.841 C85.554,23.961 85.701,24.022 85.873,24.022 C86.045,24.022 86.196,23.961 86.326,23.841 C86.455,23.72 86.52,23.573 86.52,23.401 L86.52,16.161 C87.071,16.92 87.769,17.523 88.614,17.971 C89.459,18.419 90.364,18.643 91.329,18.643 C93.036,18.643 94.484,18.023 95.673,16.781 C96.863,15.54 97.457,14.053 97.457,12.321 C97.457,10.589 96.863,9.111 95.673,7.886 C94.484,6.663 93.036,6.05 91.329,6.05 C90.364,6.05 89.459,6.27 88.614,6.71 C87.769,7.149 87.071,7.749 86.52,8.507 L86.52,6.671 C86.52,6.499 86.455,6.352 86.326,6.231 C86.196,6.111 86.045,6.05 85.873,6.05 C85.701,6.05 85.554,6.111 85.434,6.231 C85.313,6.352 85.253,6.499 85.253,6.671 L85.253,23.401 C85.253,23.573 85.313,23.72 85.434,23.841 Z M88.006,8.714 C88.946,7.783 90.071,7.318 91.381,7.318 C92.691,7.318 93.82,7.805 94.768,8.778 C95.716,9.753 96.19,10.938 96.19,12.334 C96.19,13.73 95.716,14.92 94.768,15.902 C93.82,16.885 92.674,17.385 91.329,17.402 C90.019,17.385 88.89,16.885 87.942,15.902 C86.994,14.92 86.52,13.73 86.52,12.334 L86.52,12.127 C86.571,10.782 87.067,9.645 88.006,8.714 Z M102.499,23.841 C102.62,23.961 102.767,24.022 102.939,24.022 C103.111,24.022 103.262,23.961 103.392,23.841 C103.521,23.72 103.586,23.573 103.586,23.401 L103.586,16.161 C104.137,16.92 104.835,17.523 105.68,17.971 C106.524,18.419 107.429,18.643 108.395,18.643 C110.102,18.643 111.55,18.023 112.739,16.781 C113.929,15.54 114.523,14.053 114.523,12.321 C114.523,10.589 113.929,9.111 112.739,7.886 C111.55,6.663 110.102,6.05 108.395,6.05 C107.429,6.05 106.524,6.27 105.68,6.71 C104.835,7.149 104.137,7.749 103.586,8.507 L103.586,6.671 C103.586,6.499 103.521,6.352 103.392,6.231 C103.262,6.111 103.111,6.05 102.939,6.05 C102.767,6.05 102.62,6.111 102.499,6.231 C102.379,6.352 102.318,6.499 102.318,6.671 L102.318,23.401 C102.318,23.573 102.379,23.72 102.499,23.841 Z M105.072,8.714 C106.012,7.783 107.137,7.318 108.447,7.318 C109.757,7.318 110.886,7.805 111.834,8.778 C112.782,9.753 113.256,10.938 113.256,12.334 C113.256,13.73 112.782,14.92 111.834,15.902 C110.886,16.885 109.74,17.385 108.395,17.402 C107.085,17.385 105.956,16.885 105.008,15.902 C104.059,14.92 103.586,13.73 103.586,12.334 L103.586,12.127 C103.637,10.782 104.133,9.645 105.072,8.714 Z M124.271,18.721 C125.926,18.721 127.34,18.096 128.512,16.846 C129.684,15.596 130.271,14.11 130.271,12.386 C130.271,10.662 129.684,9.175 128.512,7.925 C127.34,6.676 125.926,6.05 124.271,6.05 C122.617,6.05 121.203,6.676 120.031,7.925 C118.858,9.175 118.272,10.662 118.272,12.386 C118.272,14.11 118.858,15.596 120.031,16.846 C121.203,18.096 122.617,18.721 124.271,18.721 Z M127.62,8.766 C128.559,9.766 129.029,10.968 129.029,12.373 C129.029,13.778 128.559,14.98 127.62,15.98 C126.68,16.98 125.564,17.48 124.271,17.48 C122.979,17.48 121.862,16.98 120.923,15.98 C119.983,14.98 119.514,13.778 119.514,12.373 C119.514,10.968 119.983,9.766 120.923,8.766 C121.862,7.766 122.979,7.266 124.271,7.266 C125.564,7.266 126.68,7.766 127.62,8.766 Z M135.727,11.222 C135.761,10.136 136.157,9.214 136.916,8.455 C137.674,7.697 138.592,7.318 139.67,7.318 C140.747,7.318 141.665,7.701 142.424,8.468 C143.182,9.235 143.561,10.153 143.561,11.222 L143.561,18.1 C143.561,18.273 143.622,18.419 143.742,18.54 C143.863,18.661 144.01,18.721 144.182,18.721 C144.354,18.721 144.501,18.661 144.622,18.54 C144.742,18.419 144.803,18.273 144.803,18.1 L144.803,11.222 C144.803,9.809 144.298,8.597 143.29,7.589 C142.281,6.581 141.023,6.076 139.515,6.076 C138.006,6.076 136.743,6.688 135.727,7.912 L135.727,6.697 C135.727,6.525 135.67,6.378 135.558,6.257 C135.446,6.137 135.304,6.076 135.132,6.076 C134.959,6.076 134.813,6.137 134.692,6.257 C134.571,6.378 134.511,6.525 134.511,6.697 L134.511,18.255 L134.537,18.307 C134.537,18.342 134.546,18.368 134.563,18.385 C134.649,18.557 134.787,18.669 134.977,18.721 L135.132,18.721 C135.442,18.721 135.64,18.549 135.727,18.204 L135.727,11.222 Z M158.584,18.54 C158.705,18.661 158.851,18.721 159.024,18.721 C159.196,18.721 159.347,18.661 159.476,18.54 C159.606,18.419 159.67,18.273 159.67,18.1 L159.67,10.317 L167.273,10.317 C167.445,10.317 167.596,10.257 167.725,10.136 C167.854,10.016 167.919,9.865 167.919,9.684 C167.919,9.503 167.858,9.352 167.738,9.231 C167.617,9.111 167.462,9.05 167.273,9.05 L159.67,9.05 L159.67,1.887 L168.359,1.887 C168.531,1.887 168.677,1.823 168.798,1.693 C168.919,1.564 168.979,1.413 168.979,1.241 C168.979,1.069 168.919,0.922 168.798,0.801 C168.677,0.681 168.531,0.62 168.359,0.62 L158.998,0.62 C158.601,0.655 158.403,0.862 158.403,1.241 L158.403,18.1 C158.403,18.273 158.463,18.419 158.584,18.54 Z M178.65,18.721 C180.305,18.721 181.718,18.096 182.891,16.846 C184.063,15.596 184.649,14.11 184.649,12.386 C184.649,10.662 184.063,9.175 182.891,7.925 C181.718,6.676 180.305,6.05 178.65,6.05 C176.995,6.05 175.581,6.676 174.409,7.925 C173.237,9.175 172.651,10.662 172.651,12.386 C172.651,14.11 173.237,15.596 174.409,16.846 C175.581,18.096 176.995,18.721 178.65,18.721 Z M181.998,8.766 C182.938,9.766 183.408,10.968 183.408,12.373 C183.408,13.778 182.938,14.98 181.998,15.98 C181.059,16.98 179.943,17.48 178.65,17.48 C177.357,17.48 176.241,16.98 175.301,15.98 C174.362,14.98 173.892,13.778 173.892,12.373 C173.892,10.968 174.362,9.766 175.301,8.766 C176.241,7.766 177.357,7.266 178.65,7.266 C179.943,7.266 181.059,7.766 181.998,8.766 Z M190.131,17.208 C191.13,18.217 192.346,18.721 193.777,18.721 C195.207,18.721 196.427,18.217 197.436,17.208 C198.444,16.2 198.948,14.98 198.948,13.549 L198.948,6.645 C198.948,6.473 198.888,6.326 198.767,6.206 C198.646,6.085 198.5,6.025 198.328,6.025 C198.155,6.025 198.004,6.085 197.875,6.206 C197.746,6.326 197.681,6.473 197.681,6.645 L197.681,13.549 C197.681,14.635 197.297,15.558 196.531,16.316 C195.763,17.075 194.837,17.463 193.751,17.48 C192.682,17.463 191.768,17.075 191.01,16.316 C190.251,15.558 189.872,14.635 189.872,13.549 L189.872,6.645 C189.872,6.473 189.812,6.326 189.691,6.206 C189.57,6.085 189.424,6.025 189.252,6.025 C189.079,6.025 188.932,6.085 188.812,6.206 C188.691,6.326 188.631,6.473 188.631,6.645 L188.631,13.549 C188.631,14.98 189.131,16.2 190.131,17.208 Z M205.956,11.222 C205.99,10.136 206.386,9.214 207.145,8.455 C207.903,7.697 208.821,7.318 209.899,7.318 C210.976,7.318 211.894,7.701 212.653,8.468 C213.411,9.235 213.79,10.153 213.79,11.222 L213.79,18.1 C213.79,18.273 213.851,18.419 213.971,18.54 C214.092,18.661 214.239,18.721 214.411,18.721 C214.583,18.721 214.73,18.661 214.851,18.54 C214.971,18.419 215.032,18.273 215.032,18.1 L215.032,11.222 C215.032,9.809 214.527,8.597 213.519,7.589 C212.51,6.581 211.252,6.076 209.744,6.076 C208.235,6.076 206.972,6.688 205.956,7.912 L205.956,6.697 C205.956,6.525 205.899,6.378 205.787,6.257 C205.675,6.137 205.533,6.076 205.361,6.076 C205.188,6.076 205.042,6.137 204.921,6.257 C204.8,6.378 204.74,6.525 204.74,6.697 L204.74,18.255 L204.766,18.307 C204.766,18.342 204.775,18.368 204.792,18.385 C204.878,18.557 205.016,18.669 205.206,18.721 L205.361,18.721 C205.671,18.721 205.869,18.549 205.956,18.204 L205.956,11.222 Z M230.921,18.54 C231.05,18.661 231.201,18.721 231.374,18.721 C231.546,18.721 231.692,18.661 231.813,18.54 C231.934,18.419 231.994,18.273 231.994,18.1 L231.994,1.241 C231.994,1.069 231.934,0.922 231.813,0.801 C231.692,0.681 231.546,0.62 231.374,0.62 C231.201,0.62 231.05,0.681 230.921,0.801 C230.792,0.922 230.727,1.069 230.727,1.241 L230.727,8.533 C230.158,7.774 229.451,7.171 228.607,6.723 C227.762,6.275 226.848,6.05 225.866,6.05 C224.159,6.05 222.711,6.671 221.522,7.912 C220.332,9.153 219.738,10.649 219.738,12.399 C219.738,14.148 220.332,15.64 221.522,16.872 C222.711,18.105 224.159,18.721 225.866,18.721 C226.848,18.721 227.762,18.501 228.607,18.061 C229.451,17.622 230.158,17.023 230.727,16.264 L230.727,18.1 C230.727,18.273 230.792,18.419 230.921,18.54 Z M222.44,8.804 C223.396,7.813 224.534,7.318 225.853,7.318 C227.172,7.318 228.301,7.792 229.24,8.74 C230.18,9.688 230.675,10.843 230.727,12.205 L230.727,12.618 C230.675,13.963 230.18,15.105 229.24,16.045 C228.301,16.984 227.172,17.454 225.853,17.454 C224.534,17.454 223.396,16.963 222.44,15.98 C221.483,14.997 221.005,13.804 221.005,12.399 C221.005,10.994 221.483,9.796 222.44,8.804 Z M247.043,6.671 L247.043,8.533 C246.491,7.774 245.797,7.171 244.962,6.723 C244.125,6.275 243.233,6.05 242.285,6.05 C240.63,6.05 239.217,6.671 238.045,7.912 C236.872,9.153 236.286,10.645 236.286,12.386 C236.286,14.127 236.872,15.618 238.045,16.859 C239.217,18.1 240.63,18.721 242.285,18.721 C243.233,18.721 244.125,18.497 244.962,18.049 C245.797,17.6 246.491,16.988 247.043,16.213 L247.043,18.1 C247.043,18.273 247.103,18.419 247.224,18.54 C247.345,18.661 247.491,18.721 247.664,18.721 C247.836,18.721 247.982,18.661 248.103,18.54 C248.224,18.419 248.284,18.273 248.284,18.1 L248.284,6.671 C248.284,6.499 248.224,6.352 248.103,6.231 C247.982,6.111 247.836,6.05 247.664,6.05 C247.491,6.05 247.345,6.111 247.224,6.231 C247.103,6.352 247.043,6.499 247.043,6.671 Z M238.937,8.766 C239.876,7.766 240.996,7.266 242.298,7.266 C243.6,7.266 244.716,7.766 245.647,8.766 C246.578,9.766 247.043,10.972 247.043,12.386 C247.043,13.799 246.578,15.002 245.647,15.993 C244.716,16.984 243.6,17.48 242.298,17.48 C240.996,17.48 239.876,16.984 238.937,15.993 C237.997,15.002 237.527,13.799 237.527,12.386 C237.527,10.972 237.997,9.766 238.937,8.766 Z M255.834,6.05 L255.834,1.344 C255.834,1.189 255.765,1.047 255.628,0.918 C255.489,0.788 255.339,0.724 255.175,0.724 C255.011,0.724 254.865,0.788 254.736,0.918 C254.606,1.047 254.542,1.189 254.542,1.344 L254.542,6.05 L252.964,6.05 C252.619,6.05 252.421,6.154 252.37,6.361 C252.352,6.43 252.344,6.551 252.344,6.723 C252.344,6.895 252.378,7.033 252.447,7.137 C252.516,7.24 252.688,7.292 252.964,7.292 L254.542,7.292 L254.542,16.523 C254.542,17.161 254.752,17.687 255.175,18.1 C255.597,18.514 256.127,18.721 256.765,18.721 C256.921,18.721 257.067,18.656 257.205,18.527 C257.343,18.398 257.412,18.255 257.412,18.1 C257.412,17.945 257.343,17.799 257.205,17.661 C257.067,17.523 256.912,17.454 256.74,17.454 C256.567,17.454 256.373,17.368 256.158,17.195 C255.942,17.023 255.834,16.799 255.834,16.523 L255.834,7.292 L257.464,7.292 C257.619,7.292 257.761,7.227 257.89,7.098 C258.019,6.968 258.084,6.826 258.084,6.671 C258.084,6.516 258.019,6.374 257.89,6.244 C257.761,6.115 257.619,6.05 257.464,6.05 L255.834,6.05 Z M264.212,18.54 C264.333,18.661 264.479,18.721 264.652,18.721 C264.824,18.721 264.975,18.661 265.104,18.54 C265.234,18.419 265.298,18.273 265.298,18.1 L265.298,6.671 C265.298,6.499 265.238,6.352 265.117,6.231 C264.996,6.111 264.846,6.05 264.665,6.05 C264.484,6.05 264.333,6.111 264.212,6.231 C264.091,6.352 264.031,6.499 264.031,6.671 L264.031,18.1 C264.031,18.273 264.091,18.419 264.212,18.54 Z M264.212,3.607 C264.333,3.736 264.479,3.801 264.652,3.801 C264.824,3.801 264.975,3.736 265.104,3.607 C265.234,3.478 265.298,3.318 265.298,3.129 L265.298,2.534 C265.298,2.362 265.234,2.215 265.104,2.094 C264.975,1.974 264.824,1.913 264.652,1.913 C264.479,1.913 264.333,1.974 264.212,2.094 C264.091,2.215 264.031,2.362 264.031,2.534 L264.031,3.129 C264.031,3.318 264.091,3.478 264.212,3.607 Z M276.676,18.721 C278.33,18.721 279.744,18.096 280.916,16.846 C282.088,15.596 282.674,14.11 282.674,12.386 C282.674,10.662 282.088,9.175 280.916,7.925 C279.744,6.676 278.33,6.05 276.676,6.05 C275.021,6.05 273.607,6.676 272.435,7.925 C271.262,9.175 270.676,10.662 270.676,12.386 C270.676,14.11 271.262,15.596 272.435,16.846 C273.607,18.096 275.021,18.721 276.676,18.721 Z M280.024,8.766 C280.963,9.766 281.433,10.968 281.433,12.373 C281.433,13.778 280.963,14.98 280.024,15.98 C279.084,16.98 277.968,17.48 276.676,17.48 C275.383,17.48 274.266,16.98 273.327,15.98 C272.387,14.98 271.918,13.778 271.918,12.373 C271.918,10.968 272.387,9.766 273.327,8.766 C274.266,7.766 275.383,7.266 276.676,7.266 C277.968,7.266 279.084,7.766 280.024,8.766 Z M288.648,11.222 C288.682,10.136 289.078,9.214 289.837,8.455 C290.595,7.697 291.513,7.318 292.591,7.318 C293.668,7.318 294.586,7.701 295.345,8.468 C296.103,9.235 296.483,10.153 296.483,11.222 L296.483,18.1 C296.483,18.273 296.543,18.419 296.664,18.54 C296.784,18.661 296.931,18.721 297.103,18.721 C297.275,18.721 297.422,18.661 297.543,18.54 C297.663,18.419 297.724,18.273 297.724,18.1 L297.724,11.222 C297.724,9.809 297.22,8.597 296.211,7.589 C295.203,6.581 293.944,6.076 292.436,6.076 C290.927,6.076 289.665,6.688 288.648,7.912 L288.648,6.697 C288.648,6.525 288.592,6.378 288.48,6.257 C288.367,6.137 288.225,6.076 288.053,6.076 C287.88,6.076 287.734,6.137 287.613,6.257 C287.493,6.378 287.432,6.525 287.432,6.697 L287.432,18.255 L287.458,18.307 C287.458,18.342 287.467,18.368 287.484,18.385 C287.57,18.557 287.708,18.669 287.898,18.721 L288.053,18.721 C288.363,18.721 288.561,18.549 288.648,18.204 L288.648,11.222 Z M316.341,10.239 C316.479,10.239 316.595,10.192 316.69,10.097 C316.785,10.003 316.832,9.877 316.832,9.722 C316.832" id="Fill-2"></path>
                <path d="M28.486,74.818 C28.526,74.9 28.629,75.023 28.793,75.186 C29.488,76.005 30.307,76.414 31.249,76.414 C32.19,76.414 32.999,76.087 33.675,75.432 C34.35,74.777 34.688,73.979 34.688,73.037 L34.688,37.356 C34.688,36.456 34.35,35.678 33.675,35.022 C32.999,34.368 32.211,34.04 31.31,34.04 C30.409,34.04 29.631,34.368 28.977,35.022 C28.321,35.678 27.994,36.456 27.994,37.356 L27.994,62.658 L8.158,35.207 C7.625,34.47 6.909,34.03 6.009,33.886 C5.108,33.743 4.217,33.978 3.337,34.592 C2.456,35.207 2.057,36.108 2.14,37.295 L2.14,73.037 C2.14,73.979 2.467,74.777 3.122,75.432 C3.777,76.087 4.565,76.414 5.487,76.414 C6.408,76.414 7.196,76.077 7.851,75.401 C8.505,74.725 8.834,73.938 8.834,73.037 L8.834,47.55 L28.486,74.818 Z M50.409,76.353 L50.532,76.414 L70.43,76.414 C71.33,76.414 72.119,76.077 72.794,75.401 C73.47,74.725 73.808,73.927 73.808,73.006 C73.808,72.085 73.47,71.286 72.794,70.611 C72.119,69.935 71.33,69.598 70.43,69.598 L53.787,69.598 L53.787,58.298 L68.096,58.298 C69.038,58.298 69.836,57.96 70.491,57.284 C71.146,56.609 71.474,55.81 71.474,54.889 C71.474,53.968 71.136,53.17 70.461,52.494 C69.785,51.819 68.996,51.481 68.096,51.481 L53.787,51.481 L53.787,40.242 L70.43,40.242 C71.33,40.242 72.119,39.905 72.794,39.229 C73.47,38.554 73.808,37.746 73.808,36.803 C73.808,35.862 73.47,35.064 72.794,34.408 C72.119,33.754 71.33,33.426 70.43,33.426 L50.348,33.426 C49.406,33.426 48.607,33.754 47.953,34.408 C47.298,35.064 46.97,35.862 46.97,36.803 L46.97,73.037 C46.97,73.979 47.298,74.777 47.953,75.432 C48.607,76.087 49.406,76.414 50.348,76.414 L50.409,76.353 Z M112.497,46.936 C112.497,43.088 111.217,39.874 108.658,37.295 C106.099,34.715 102.998,33.426 99.354,33.426 L88.362,33.426 C87.419,33.426 86.621,33.754 85.966,34.408 C85.311,35.064 84.984,35.862 84.984,36.803 L84.984,73.037 C84.984,73.979 85.311,74.777 85.966,75.432 C86.621,76.087 87.419,76.414 88.362,76.414 C89.303,76.414 90.112,76.087 90.787,75.432 C91.463,74.777 91.801,73.979 91.801,73.037 L91.801,59.71 L99.047,59.71 C100.276,59.997 101.421,60.488 102.486,61.184 C104.123,62.249 104.983,63.723 105.066,65.606 C105.066,68.718 105.496,71.174 106.355,72.975 C107.42,74.859 108.873,75.8 110.716,75.8 L110.777,75.8 C112.087,75.8 113.09,75.33 113.786,74.388 C114.482,73.446 114.646,72.433 114.278,71.348 C113.909,70.263 113.192,69.557 112.128,69.229 C111.923,68.165 111.841,66.957 111.882,65.606 C111.882,61.798 110.49,58.83 107.706,56.701 C110.9,54.04 112.497,50.785 112.497,46.936 Z M91.801,52.893 L91.801,40.242 L99.354,40.242 C101.114,40.242 102.609,40.867 103.837,42.115 C105.066,43.365 105.68,44.859 105.68,46.599 C105.68,48.339 105.066,49.823 103.837,51.051 C102.609,52.279 101.114,52.893 99.354,52.893 L91.801,52.893 Z M130.122,76.353 L130.245,76.414 L150.142,76.414 C151.042,76.414 151.831,76.077 152.507,75.401 C153.182,74.725 153.52,73.927 153.52,73.006 C153.52,72.085 153.182,71.286 152.507,70.611 C151.831,69.935 151.042,69.598 150.142,69.598 L133.5,69.598 L133.5,58.298 L147.809,58.298 C148.75,58.298 149.548,57.96 150.204,57.284 C150.858,56.609 151.186,55.81 151.186,54.889 C151.186,53.968 150.849,53.17 150.173,52.494 C149.498,51.819 148.709,51.481 147.809,51.481 L133.5,51.481 L133.5,40.242 L150.142,40.242 C151.042,40.242 151.831,39.905 152.507,39.229 C153.182,38.554 153.52,37.746 153.52,36.803 C153.52,35.862 153.182,35.064 152.507,34.408 C151.831,33.754 151.042,33.426 150.142,33.426 L130.061,33.426 C129.118,33.426 128.32,33.754 127.665,34.408 C127.01,35.064 126.683,35.862 126.683,36.803 L126.683,73.037 C126.683,73.979 127.01,74.777 127.665,75.432 C128.32,76.087 129.118,76.414 130.061,76.414 L130.122,76.353 Z M198.657,36.803 C198.657,35.862 198.329,35.064 197.675,34.408 C197.019,33.754 196.221,33.426 195.28,33.426 C194.337,33.426 193.529,33.754 192.854,34.408 C192.178,35.064 191.841,35.862 191.841,36.803 L191.841,58.666 C191.841,61.696 190.775,64.276 188.647,66.404 C186.518,68.533 183.939,69.598 180.909,69.598 C177.879,69.598 175.3,68.523 173.171,66.373 C171.042,64.224 169.978,61.655 169.978,58.666 L169.978,36.803 C169.978,35.862 169.64,35.064 168.964,34.408 C168.289,33.754 167.48,33.426 166.539,33.426 C165.596,33.426 164.798,33.754 164.144,34.408 C163.488,35.064 163.161,35.862 163.161,36.803 L163.161,58.666 C163.161,63.579 164.89,67.766 168.35,71.225 C171.81,74.685 175.996,76.414 180.909,76.414 C185.822,76.414 190.008,74.675 193.468,71.194 C196.927,67.715 198.657,63.539 198.657,58.666 L198.657,36.803 Z M234.184,67.909 C232.28,69.321 229.793,70.027 226.723,70.027 C222.832,70.069 218.923,68.492 214.993,65.299 C214.337,64.726 213.559,64.491 212.659,64.592 C211.758,64.695 211.041,65.074 210.51,65.729 C209.977,66.384 209.762,67.162 209.865,68.062 C209.967,68.963 210.346,69.68 211.001,70.212 C216.118,74.265 221.359,76.313 226.723,76.353 C231.103,76.353 234.972,75.135 238.329,72.699 C241.686,70.263 243.365,67.141 243.365,63.333 C243.365,58.953 240.826,55.514 235.75,53.016 C233.539,51.993 230.714,51.133 227.275,50.437 L227.152,50.437 C222.117,49.495 219.025,48.083 217.879,46.199 C217.551,45.708 217.388,45.115 217.388,44.418 C217.388,42.986 218.248,41.635 219.967,40.365 C221.687,39.097 223.898,38.461 226.6,38.461 C228.278,38.461 229.864,38.79 231.359,39.444 C232.853,40.099 234.562,41.082 236.487,42.392 C237.224,42.883 238.022,43.037 238.882,42.852 C239.742,42.668 240.407,42.218 240.878,41.501 C241.348,40.785 241.492,39.997 241.308,39.137 C241.124,38.277 240.683,37.602 239.988,37.11 C238.472,36.128 237.255,35.371 236.334,34.838 C235.412,34.306 234.01,33.733 232.127,33.119 C230.243,32.504 228.401,32.197 226.6,32.197 C222.505,32.197 218.892,33.344 215.76,35.636 C212.628,37.93 211.062,40.857 211.062,44.418 C211.062,46.261 211.605,48.052 212.69,49.792 C213.774,51.533 215.484,52.955 217.818,54.06 C220.151,55.166 222.915,56.025 226.108,56.639 L226.231,56.639 C233.437,57.991 237.04,60.223 237.04,63.333 C237.04,64.971 236.088,66.496 234.184,67.909 Z M271.675,75.984 C271.961,76.271 272.309,76.414 272.719,76.414 C273.128,76.414 273.487,76.271 273.794,75.984 C274.101,75.698 274.254,75.35 274.254,74.94 L274.254,58.052 L284.879,57.929 C288.235,57.929 291.112,56.732 293.507,54.337 C295.902,51.941 297.1,49.055 297.1,45.677 C297.1,42.3 295.902,39.413 293.507,37.018 C291.112,34.623 288.235,33.426 284.879,33.426 L272.719,33.426 C272.309,33.426 271.961,33.57 271.675,33.856 C271.388,34.142 271.245,34.491 271.245,34.9 L271.245,74.94 C271.245,75.35 271.388,75.698 271.675,75.984 Z M274.254,36.435 L284.879,36.435 C287.417,36.435 289.597,37.346 291.419,39.168 C293.241,40.99 294.152,43.17 294.152,45.708 C294.152,48.247 293.241,50.427 291.419,52.249 C289.597,54.071 287.417,55.002 284.879,55.043 L274.254,55.043 L274.254,36.435 Z M332.473,75.739 L333.087,75.677 L333.21,75.677 C334.07,75.35 334.397,74.695 334.193,73.712 C333.947,72.975 333.394,72.648 332.534,72.73 C331.756,71.952 331.368,70.191 331.368,67.448 C331.368,64.706 330.815,62.535 329.709,60.938 C328.604,59.342 327.232,58.073 325.595,57.131 L324.981,56.824 C327.109,55.841 328.819,54.347 330.109,52.341 C331.398,50.335 332.043,48.124 332.043,45.708 C332.043,42.31 330.855,39.413 328.481,37.018 C326.106,34.623 323.22,33.426 319.822,33.426 L307.54,33.426 C307.171,33.467 306.853,33.631 306.588,33.917 C306.321,34.204 306.188,34.531 306.188,34.9 L306.188,74.94 C306.188,75.35 306.331,75.698 306.618,75.984 C306.904,76.271 307.253,76.414 307.662,76.414 C308.071,76.414 308.43,76.271 308.737,75.984 C309.044,75.698 309.198,75.35 309.198,74.94 L309.198,57.929 L319.638,57.929 C319.678,57.929 319.719,57.95 319.761,57.991 C321.52,58.277 323.24,59.014 324.919,60.201 C327.253,61.921 328.42,64.092 328.42,66.711 C328.42,72.73 329.73,75.739 332.35,75.739 L332.473,75.739 Z M320.068,54.981 L309.198,54.981 L309.198,36.435 L319.822,36.435 C322.36,36.435 324.54,37.336 326.362,39.137 C328.184,40.939 329.095,43.109 329.095,45.647 C329.095,48.186 328.214,50.355 326.455,52.156 C324.694,53.958 322.564,54.9 320.068,54.981 Z M348.379,70.058 C352.391,74.296 357.273,76.414 363.026,76.414 C368.777,76.414 373.639,74.296 377.611,70.058 C381.582,65.821 383.588,60.673 383.629,54.613 C383.588,48.554 381.582,43.405 377.611,39.168 C373.639,34.93 368.777,32.811 363.026,32.811 C357.273,32.811 352.391,34.93 348.379,39.168 C344.366,43.405 342.339,48.554 342.299,54.613 C342.339,60.673 344.366,65.821 348.379,70.058 Z M375.37,41.286 C378.788,44.89 380.518,49.331 380.559,54.613 C380.518,59.813 378.778,64.245 375.339,67.909 C371.9,71.573 367.764,73.405 362.934,73.405 C358.102,73.405 353.957,71.584 350.497,67.939 C347.037,64.296 345.308,59.843 345.308,54.582 C345.308,49.322 347.037,44.89 350.497,41.286 C353.957,37.684 358.113,35.882 362.964,35.882 C367.816,35.882 371.951,37.684 375.37,41.286 Z M425.758,69.72 C422.4,72.177 418.613,73.405 414.397,73.405 C409.033,73.405 404.468,71.573 400.702,67.909 C396.934,64.245 395.052,59.813 395.052,54.613 C395.052,49.414 396.934,44.982 400.702,41.317 C404.468,37.653 409.033,35.821 414.397,35.821 C418.981,35.821 422.973,37.213 426.372,39.997 C427.232,40.571 427.948,40.488 428.521,39.751 C428.767,39.424 428.869,39.045 428.828,38.615 C428.787,38.185 428.623,37.868 428.337,37.663 C424.161,34.429 419.514,32.811 414.397,32.811 C408.214,32.811 402.943,34.941 398.583,39.198 C394.223,43.457 392.042,48.594 392.042,54.613 C392.042,60.631 394.223,65.759 398.583,69.997 C402.943,74.234 408.214,76.374 414.397,76.414 C419.678,76.414 424.304,74.839 428.276,71.686 C428.562,71.44 428.746,71.071 428.828,70.58 L428.828,55.595 C428.828,55.187 428.695,54.838 428.429,54.551 C428.162,54.266 427.846,54.101 427.477,54.06 L414.028,54.06 C413.577,54.06 413.209,54.204 412.923,54.49 C412.636,54.777 412.493,55.135 412.493,55.565 C412.493,55.995 412.636,56.354 412.923,56.639 C413.209,56.926 413.577,57.069 414.028,57.069 L425.758,57.069 L425.758,69.72 Z M469.36,75.739 L469.974,75.677 L470.097,75.677 C470.957,75.35 471.284,74.695 471.08,73.712 C470.834,72.975 470.281,72.648 469.422,72.73 C468.643,71.952 468.255,70.191 468.255,67.448 C468.255,64.706 467.702,62.535 466.597,60.938 C465.491,59.342 464.119,58.073 462.482,57.131 L461.868,56.824 C463.996,55.841 465.706,54.347 466.996,52.341 C468.286,50.335 468.93,48.124 468.93,45.708 C468.93,42.31 467.742,39.413 465.369,37.018 C462.994,34.623 460.107,33.426 456.709,33.426 L444.427,33.426 C444.058,33.467 443.741,33.631 443.475,33.917 C443.208,34.204 443.076,34.531 443.076,34.9 L443.076,74.94 C443.076,75.35 443.219,75.698 443.506,75.984 C443.792,76.271 444.14,76.414 444.55,76.414 C444.958,76.414 445.317,76.271 445.624,75.984 C445.932,75.698 446.085,75.35 446.085,74.94 L446.085,57.929 L456.525,57.929 C456.565,57.929 456.607,57.95 456.648,57.991 C458.408,58.277 460.127,59.014 461.807,60.201 C464.14,61.921 465.307,64.092 465.307,66.711 C465.307,72.73 466.617,75.739 469.237,75.739 L469.36,75.739 Z M456.955,54.981 L446.085,54.981 L446.085,36.435 L456.709,36.435 C459.247,36.435 461.428,37.336 463.25,39.137 C465.071,40.939 465.983,43.109 465.983,45.647 C465.983,48.186 465.102,50.355 463.342,52.156 C461.581,53.958 459.452,54.9 456.955,54.981 Z M512.41,75.524 C512.574,75.135 512.574,74.756 512.41,74.388 L497.487,34.531 C497.282,33.917 496.812,33.61 496.075,33.61 C495.338,33.61 494.825,33.917 494.539,34.531 L479.616,74.388 C479.452,74.756 479.463,75.135 479.647,75.524 C479.831,75.913 480.107,76.19 480.476,76.353 L481.029,76.414 C481.724,76.414 482.195,76.087 482.441,75.432 L486.249,65.299 L505.839,65.299 L509.647,75.432 C509.893,76.087 510.363,76.414 511.059,76.414 L511.612,76.353 C511.981,76.19 512.246,75.913 512.41,75.524 Z M504.734,62.289 L487.354,62.289 L496.075,39.198 L504.734,62.289 Z M555.583,75.984 C555.869,76.271 556.217,76.414 556.627,76.414 C557.036,76.414 557.384,76.271 557.671,75.984 C557.957,75.698 558.101,75.35 558.101,74.94 L558.101,35.145 C558.101,34.736 557.875,34.306 557.425,33.856 C557.097,33.651 556.719,33.579 556.289,33.641 C555.859,33.702 555.542,33.897 555.337,34.224 L540.107,55.411 L524.815,34.224 C524.242,33.447 523.546,33.324 522.727,33.856 L522.605,33.978 C522.195,34.265 521.99,34.654 521.99,35.145 L521.99,74.94 C521.99,75.35 522.144,75.698 522.451,75.984 C522.758,76.271 523.116,76.414 523.526,76.414 C523.935,76.414 524.283,76.271 524.57,75.984 C524.856,75.698 525,75.35 525,74.94 L525,39.628 L538.756,58.666 C539.042,59.117 539.472,59.342 540.046,59.342 L540.169,59.342 C540.7,59.342 541.11,59.117 541.397,58.666 L555.153,39.567 L555.153,74.94 C555.153,75.35 555.296,75.698 555.583,75.984 L555.583,75.984 Z" id="Fill-3"></path>
            </g>
        </g>
    </g>
</svg>
